{"buffers":[{"uri":"camera.bin","byteLength":50276},{"byteLength":132556,"extensions":{"EXT_meshopt_compression":{"fallback":true}}}],"asset":{"version":"2.0","generator":"gltfpack 0.16"},"extensionsUsed":["KHR_mesh_quantization","EXT_meshopt_compression","KHR_texture_transform"],"extensionsRequired":["KHR_mesh_quantization","EXT_meshopt_compression"],"bufferViews":[{"buffer":1,"byteOffset":0,"byteLength":42168,"byteStride":8,"target":34962,"extensions":{"EXT_meshopt_compression":{"buffer":0,"byteOffset":0,"byteLength":21016,"byteStride":8,"mode":"ATTRIBUTES","count":5271}}},{"buffer":1,"byteOffset":42168,"byteLength":21084,"byteStride":4,"target":34962,"extensions":{"EXT_meshopt_compression":{"buffer":0,"byteOffset":21016,"byteLength":8525,"byteStride":4,"mode":"ATTRIBUTES","filter":"OCTAHEDRAL","count":5271}}},{"buffer":1,"byteOffset":63252,"byteLength":18044,"byteStride":4,"target":34962,"extensions":{"EXT_meshopt_compression":{"buffer":0,"byteOffset":29544,"byteLength":11197,"byteStride":4,"mode":"ATTRIBUTES","count":4511}}},{"buffer":1,"byteOffset":81296,"byteLength":51258,"target":34963,"extensions":{"EXT_meshopt_compression":{"buffer":0,"byteOffset":40744,"byteLength":9532,"byteStride":2,"mode":"TRIANGLES","count":25629}}}],"accessors":[{"bufferView":0,"byteOffset":0,"componentType":5123,"count":679,"type":"VEC3","min":[4918,638,7450],"max":[12501,8220,16383]},{"bufferView":1,"byteOffset":0,"componentType":5120,"count":679,"type":"VEC3","normalized":true},{"bufferView":2,"byteOffset":0,"componentType":5123,"count":679,"type":"VEC2"},{"bufferView":3,"byteOffset":0,"componentType":5123,"count":2784,"type":"SCALAR"},{"bufferView":0,"byteOffset":5432,"componentType":5123,"count":240,"type":"VEC3","min":[6163,1883,13800],"max":[11255,6975,15927]},{"bufferView":1,"byteOffset":2716,"componentType":5120,"count":240,"type":"VEC3","normalized":true},{"bufferView":3,"byteOffset":5568,"componentType":5123,"count":1320,"type":"SCALAR"},{"bufferView":0,"byteOffset":7352,"componentType":5123,"count":65,"type":"VEC3","min":[6241,1961,15783],"max":[11177,6897,16126]},{"bufferView":1,"byteOffset":3676,"componentType":5120,"count":65,"type":"VEC3","normalized":true},{"bufferView":3,"byteOffset":8208,"componentType":5123,"count":288,"type":"SCALAR"},{"bufferView":0,"byteOffset":7872,"componentType":5123,"count":21,"type":"VEC3","min":[7825,3545,13800],"max":[9594,5314,13964]},{"bufferView":1,"byteOffset":3936,"componentType":5120,"count":21,"type":"VEC3","normalized":true},{"bufferView":3,"byteOffset":8784,"componentType":5123,"count":60,"type":"SCALAR"},{"bufferView":0,"byteOffset":8040,"componentType":5123,"count":3748,"type":"VEC3","min":[0,0,0],"max":[14627,11934,9465]},{"bufferView":1,"byteOffset":4020,"componentType":5120,"count":3748,"type":"VEC3","normalized":true},{"bufferView":2,"byteOffset":2716,"componentType":5123,"count":3748,"type":"VEC2"},{"bufferView":3,"byteOffset":8904,"componentType":5123,"count":20076,"type":"SCALAR"},{"bufferView":0,"byteOffset":38024,"componentType":5123,"count":434,"type":"VEC3","min":[834,7878,6462],"max":[2033,8686,6765]},{"bufferView":1,"byteOffset":19012,"componentType":5120,"count":434,"type":"VEC3","normalized":true},{"bufferView":3,"byteOffset":49056,"componentType":5123,"count":861,"type":"SCALAR"},{"bufferView":0,"byteOffset":41496,"componentType":5123,"count":84,"type":"VEC3","min":[2375,8612,1376],"max":[5161,9724,4131]},{"bufferView":1,"byteOffset":20748,"componentType":5120,"count":84,"type":"VEC3","normalized":true},{"bufferView":2,"byteOffset":17708,"componentType":5123,"count":84,"type":"VEC2"},{"bufferView":3,"byteOffset":50778,"componentType":5123,"count":240,"type":"SCALAR"}],"images":[{"uri":"Cilindro_material_normal.jpg"},{"uri":"Cilindro_material_baseColor.jpg"},{"uri":"Cilindro_material_metallicRoughness.jpg"},{"uri":"Camara_material_normal.jpg"},{"uri":"Camara_material_baseColor.jpg"},{"uri":"Camara_material_metallicRoughness.jpg"},{"uri":"ruleta_normal.jpg"},{"uri":"ruleta_baseColor.jpg"},{"uri":"ruleta_metallicRoughness.jpg"}],"textures":[{"source":0},{"source":1},{"source":2},{"source":3},{"source":4},{"source":5},{"source":6},{"source":7},{"source":8}],"materials":[{"name":"Cilindro_material","pbrMetallicRoughness":{"baseColorTexture":{"index":1,"texCoord":0,"extensions":{"KHR_texture_transform":{"offset":[0,0.00394415855],"scale":[0.000244200259,0.000236936467]}}},"metallicRoughnessTexture":{"index":2,"texCoord":0,"extensions":{"KHR_texture_transform":{"offset":[0,0.00394415855],"scale":[0.000244200259,0.000236936467]}}}},"normalTexture":{"index":0,"texCoord":0,"extensions":{"KHR_texture_transform":{"offset":[0,0.00394415855],"scale":[0.000244200259,0.000236936467]}}},"doubleSided":true},{"name":"lambert1","pbrMetallicRoughness":{"baseColorFactor":[0.0707770139,0.0707770139,0.0707770139,1],"metallicFactor":0.950217068,"roughnessFactor":0.396921307},"doubleSided":true},{"name":"lambert3","pbrMetallicRoughness":{"baseColorFactor":[0.328176677,0.0994290188,0.0116971536,1],"roughnessFactor":0.0746721253},"alphaMode":"BLEND","doubleSided":true},{"name":"lambert4","pbrMetallicRoughness":{"baseColorFactor":[0.136388674,0.182727367,0.147530988,1],"roughnessFactor":0.238836795},"doubleSided":true},{"name":"Camara_material","pbrMetallicRoughness":{"baseColorTexture":{"index":4,"texCoord":0,"extensions":{"KHR_texture_transform":{"offset":[0,0],"scale":[0.000243395669,0.000240270179]}}},"metallicRoughnessTexture":{"index":5,"texCoord":0,"extensions":{"KHR_texture_transform":{"offset":[0,0],"scale":[0.000243395669,0.000240270179]}}}},"normalTexture":{"index":3,"texCoord":0,"extensions":{"KHR_texture_transform":{"offset":[0,0],"scale":[0.000243395669,0.000240270179]}}},"doubleSided":true},{"name":"ruleta_2","pbrMetallicRoughness":{"baseColorFactor":[0.0260307416,0.0260307416,0.0260307416,1],"metallicFactor":0.998858452,"roughnessFactor":0.330039412},"doubleSided":true},{"name":"ruleta","pbrMetallicRoughness":{"baseColorTexture":{"index":7,"texCoord":0,"extensions":{"KHR_texture_transform":{"offset":[0.00473240018,0.00826466084],"scale":[0.000241888891,0.000236344829]}}},"metallicFactor":0,"metallicRoughnessTexture":{"index":8,"texCoord":0,"extensions":{"KHR_texture_transform":{"offset":[0.00473240018,0.00826466084],"scale":[0.000241888891,0.000236344829]}}}},"normalTexture":{"index":6,"texCoord":0,"extensions":{"KHR_texture_transform":{"offset":[0.00473240018,0.00826466084],"scale":[0.000241888891,0.000236344829]}}},"doubleSided":true}],"meshes":[{"primitives":[{"attributes":{"POSITION":0,"NORMAL":1,"TEXCOORD_0":2},"mode":4,"indices":3,"material":0},{"attributes":{"POSITION":4,"NORMAL":5},"mode":4,"indices":6,"material":1},{"attributes":{"POSITION":7,"NORMAL":8},"mode":4,"indices":9,"material":2},{"attributes":{"POSITION":10,"NORMAL":11},"mode":4,"indices":12,"material":3},{"attributes":{"POSITION":13,"NORMAL":14,"TEXCOORD_0":15},"mode":4,"indices":16,"material":4},{"attributes":{"POSITION":17,"NORMAL":18},"mode":4,"indices":19,"material":5},{"attributes":{"POSITION":20,"NORMAL":21,"TEXCOORD_0":22},"mode":4,"indices":23,"material":6}]}],"nodes":[{"mesh":0,"translation":[-1.98983324,-1.01191998,-1.42583919],"scale":[0.000228474848,0.000228474848,0.000228474848]}],"scenes":[{"name":"Scene","nodes":[0]}],"scene":0}