{"buffers":[{"uri":"minidron.bin","byteLength":44468},{"byteLength":130496,"extensions":{"EXT_meshopt_compression":{"fallback":true}}}],"asset":{"version":"2.0","generator":"gltfpack 0.16"},"extensionsUsed":["KHR_mesh_quantization","EXT_meshopt_compression"],"extensionsRequired":["KHR_mesh_quantization","EXT_meshopt_compression"],"bufferViews":[{"buffer":1,"byteOffset":0,"byteLength":52544,"byteStride":8,"target":34962,"extensions":{"EXT_meshopt_compression":{"buffer":0,"byteOffset":0,"byteLength":24052,"byteStride":8,"mode":"ATTRIBUTES","count":6568}}},{"buffer":1,"byteOffset":52544,"byteLength":26272,"byteStride":4,"target":34962,"extensions":{"EXT_meshopt_compression":{"buffer":0,"byteOffset":24052,"byteLength":8711,"byteStride":4,"mode":"ATTRIBUTES","filter":"OCTAHEDRAL","count":6568}}},{"buffer":1,"byteOffset":78816,"byteLength":37284,"target":34963,"extensions":{"EXT_meshopt_compression":{"buffer":0,"byteOffset":32764,"byteLength":6793,"byteStride":2,"mode":"TRIANGLES","count":18642}}},{"buffer":1,"byteOffset":116100,"byteLength":236,"extensions":{"EXT_meshopt_compression":{"buffer":0,"byteOffset":39560,"byteLength":215,"byteStride":4,"mode":"ATTRIBUTES","count":59}}},{"buffer":1,"byteOffset":116336,"byteLength":8496,"extensions":{"EXT_meshopt_compression":{"buffer":0,"byteOffset":39776,"byteLength":2636,"byteStride":12,"mode":"ATTRIBUTES","filter":"EXPONENTIAL","count":708}}},{"buffer":1,"byteOffset":124832,"byteLength":5664,"extensions":{"EXT_meshopt_compression":{"buffer":0,"byteOffset":42412,"byteLength":2055,"byteStride":8,"mode":"ATTRIBUTES","filter":"QUATERNION","count":708}}}],"accessors":[{"bufferView":0,"byteOffset":0,"componentType":5123,"count":1108,"type":"VEC3","min":[0,0,331],"max":[8731,9653,1943]},{"bufferView":1,"byteOffset":0,"componentType":5120,"count":1108,"type":"VEC3","normalized":true},{"bufferView":2,"byteOffset":0,"componentType":5123,"count":3432,"type":"SCALAR"},{"bufferView":0,"byteOffset":8864,"componentType":5123,"count":288,"type":"VEC3","min":[615,663,1714],"max":[8116,8990,1905]},{"bufferView":1,"byteOffset":4432,"componentType":5120,"count":288,"type":"VEC3","normalized":true},{"bufferView":2,"byteOffset":6864,"componentType":5123,"count":1296,"type":"SCALAR"},{"bufferView":0,"byteOffset":11168,"componentType":5123,"count":2801,"type":"VEC3","min":[1430,3737,657],"max":[7614,8795,2981]},{"bufferView":1,"byteOffset":5584,"componentType":5120,"count":2801,"type":"VEC3","normalized":true},{"bufferView":2,"byteOffset":9456,"componentType":5123,"count":7152,"type":"SCALAR"},{"bufferView":0,"byteOffset":33576,"componentType":5123,"count":607,"type":"VEC3","min":[1574,3824,2508],"max":[7471,8709,2552]},{"bufferView":1,"byteOffset":16788,"componentType":5120,"count":607,"type":"VEC3","normalized":true},{"bufferView":2,"byteOffset":23760,"componentType":5123,"count":1008,"type":"SCALAR"},{"bufferView":0,"byteOffset":38432,"componentType":5123,"count":122,"type":"VEC3","min":[365,568,0],"max":[14032,16383,3059]},{"bufferView":1,"byteOffset":19216,"componentType":5120,"count":122,"type":"VEC3","normalized":true},{"bufferView":2,"byteOffset":25776,"componentType":5123,"count":696,"type":"SCALAR"},{"bufferView":0,"byteOffset":39408,"componentType":5123,"count":122,"type":"VEC3","min":[365,568,0],"max":[14032,16383,3059]},{"bufferView":1,"byteOffset":19704,"componentType":5120,"count":122,"type":"VEC3","normalized":true},{"bufferView":2,"byteOffset":27168,"componentType":5123,"count":696,"type":"SCALAR"},{"bufferView":0,"byteOffset":40384,"componentType":5123,"count":122,"type":"VEC3","min":[365,568,0],"max":[14032,16383,3059]},{"bufferView":1,"byteOffset":20192,"componentType":5120,"count":122,"type":"VEC3","normalized":true},{"bufferView":2,"byteOffset":28560,"componentType":5123,"count":696,"type":"SCALAR"},{"bufferView":0,"byteOffset":41360,"componentType":5123,"count":122,"type":"VEC3","min":[365,568,0],"max":[14032,16383,3059]},{"bufferView":1,"byteOffset":20680,"componentType":5120,"count":122,"type":"VEC3","normalized":true},{"bufferView":2,"byteOffset":29952,"componentType":5123,"count":696,"type":"SCALAR"},{"bufferView":0,"byteOffset":42336,"componentType":5123,"count":783,"type":"VEC3","min":[6337,5704,1376],"max":[8143,11096,2655]},{"bufferView":1,"byteOffset":21168,"componentType":5120,"count":783,"type":"VEC3","normalized":true},{"bufferView":2,"byteOffset":31344,"componentType":5123,"count":1194,"type":"SCALAR"},{"bufferView":0,"byteOffset":48600,"componentType":5123,"count":243,"type":"VEC3","min":[6337,5678,2231],"max":[8143,11105,2898]},{"bufferView":1,"byteOffset":24300,"componentType":5120,"count":243,"type":"VEC3","normalized":true},{"bufferView":2,"byteOffset":33732,"componentType":5123,"count":528,"type":"SCALAR"},{"bufferView":0,"byteOffset":50544,"componentType":5123,"count":46,"type":"VEC3","min":[6361,7572,1050],"max":[8145,9356,2835]},{"bufferView":1,"byteOffset":25272,"componentType":5120,"count":46,"type":"VEC3","normalized":true},{"bufferView":2,"byteOffset":34788,"componentType":5123,"count":72,"type":"SCALAR"},{"bufferView":0,"byteOffset":50912,"componentType":5123,"count":10,"type":"VEC3","min":[7168,8392,1050],"max":[7338,8553,2835]},{"bufferView":1,"byteOffset":25456,"componentType":5120,"count":10,"type":"VEC3","normalized":true},{"bufferView":2,"byteOffset":34932,"componentType":5123,"count":48,"type":"SCALAR"},{"bufferView":0,"byteOffset":50992,"componentType":5123,"count":10,"type":"VEC3","min":[7168,8392,1050],"max":[7338,8553,2835]},{"bufferView":1,"byteOffset":25496,"componentType":5120,"count":10,"type":"VEC3","normalized":true},{"bufferView":2,"byteOffset":35028,"componentType":5123,"count":48,"type":"SCALAR"},{"bufferView":0,"byteOffset":51072,"componentType":5123,"count":92,"type":"VEC3","min":[6404,7572,1050],"max":[8101,9356,2835]},{"bufferView":1,"byteOffset":25536,"componentType":5120,"count":92,"type":"VEC3","normalized":true},{"bufferView":2,"byteOffset":35124,"componentType":5123,"count":540,"type":"SCALAR"},{"bufferView":0,"byteOffset":51808,"componentType":5123,"count":92,"type":"VEC3","min":[6404,7572,1050],"max":[8101,9356,2835]},{"bufferView":1,"byteOffset":25904,"componentType":5120,"count":92,"type":"VEC3","normalized":true},{"bufferView":2,"byteOffset":36204,"componentType":5123,"count":540,"type":"SCALAR"},{"bufferView":3,"byteOffset":0,"componentType":5126,"count":59,"type":"SCALAR","min":[0.0416666679],"max":[1.97500002]},{"bufferView":4,"byteOffset":0,"componentType":5126,"count":59,"type":"VEC3"},{"bufferView":5,"byteOffset":0,"componentType":5122,"count":59,"type":"VEC4","normalized":true},{"bufferView":4,"byteOffset":708,"componentType":5126,"count":59,"type":"VEC3"},{"bufferView":5,"byteOffset":472,"componentType":5122,"count":59,"type":"VEC4","normalized":true},{"bufferView":4,"byteOffset":1416,"componentType":5126,"count":59,"type":"VEC3"},{"bufferView":5,"byteOffset":944,"componentType":5122,"count":59,"type":"VEC4","normalized":true},{"bufferView":4,"byteOffset":2124,"componentType":5126,"count":59,"type":"VEC3"},{"bufferView":5,"byteOffset":1416,"componentType":5122,"count":59,"type":"VEC4","normalized":true},{"bufferView":4,"byteOffset":2832,"componentType":5126,"count":59,"type":"VEC3"},{"bufferView":5,"byteOffset":1888,"componentType":5122,"count":59,"type":"VEC4","normalized":true},{"bufferView":4,"byteOffset":3540,"componentType":5126,"count":59,"type":"VEC3"},{"bufferView":5,"byteOffset":2360,"componentType":5122,"count":59,"type":"VEC4","normalized":true},{"bufferView":4,"byteOffset":4248,"componentType":5126,"count":59,"type":"VEC3"},{"bufferView":5,"byteOffset":2832,"componentType":5122,"count":59,"type":"VEC4","normalized":true},{"bufferView":4,"byteOffset":4956,"componentType":5126,"count":59,"type":"VEC3"},{"bufferView":5,"byteOffset":3304,"componentType":5122,"count":59,"type":"VEC4","normalized":true},{"bufferView":4,"byteOffset":5664,"componentType":5126,"count":59,"type":"VEC3"},{"bufferView":5,"byteOffset":3776,"componentType":5122,"count":59,"type":"VEC4","normalized":true},{"bufferView":4,"byteOffset":6372,"componentType":5126,"count":59,"type":"VEC3"},{"bufferView":5,"byteOffset":4248,"componentType":5122,"count":59,"type":"VEC4","normalized":true},{"bufferView":4,"byteOffset":7080,"componentType":5126,"count":59,"type":"VEC3"},{"bufferView":5,"byteOffset":4720,"componentType":5122,"count":59,"type":"VEC4","normalized":true},{"bufferView":4,"byteOffset":7788,"componentType":5126,"count":59,"type":"VEC3"},{"bufferView":5,"byteOffset":5192,"componentType":5122,"count":59,"type":"VEC4","normalized":true}],"materials":[{"name":"Material.012","pbrMetallicRoughness":{"baseColorFactor":[0.0352177098,0.0352177098,0.0352177098,1],"metallicFactor":0,"roughnessFactor":0.144626528},"doubleSided":true},{"name":"Material.013","pbrMetallicRoughness":{"baseColorFactor":[0.735656977,0.605148554,0.511895776,1],"metallicFactor":0,"roughnessFactor":0.600000024},"doubleSided":true},{"name":"pale.002","pbrMetallicRoughness":{"baseColorFactor":[0.0444544554,0.0444544554,0.0444544554,1],"metallicFactor":0,"roughnessFactor":0.600000024},"doubleSided":true},{"name":"Material.014","pbrMetallicRoughness":{"metallicFactor":0,"roughnessFactor":0},"doubleSided":true},{"name":"Cylinder.001_0.002","pbrMetallicRoughness":{"metallicFactor":0,"roughnessFactor":0.600000024},"doubleSided":true},{"name":"Material.015","pbrMetallicRoughness":{"baseColorFactor":[0.800000072,0.00395958219,0,1],"metallicFactor":0,"roughnessFactor":0.600000024},"emissiveFactor":[1,0.197083682,0.197083682],"doubleSided":true},{"name":"Material.016","pbrMetallicRoughness":{"baseColorFactor":[0.502726436,0.800000072,0.800000072,1],"metallicFactor":0,"roughnessFactor":0.600000024},"emissiveFactor":[0.46514827,1,1],"doubleSided":true}],"meshes":[{"primitives":[{"attributes":{"POSITION":0,"NORMAL":1},"mode":4,"indices":2,"material":0}]},{"primitives":[{"attributes":{"POSITION":3,"NORMAL":4},"mode":4,"indices":5,"material":1}]},{"primitives":[{"attributes":{"POSITION":6,"NORMAL":7},"mode":4,"indices":8,"material":0}]},{"primitives":[{"attributes":{"POSITION":9,"NORMAL":10},"mode":4,"indices":11,"material":1}]},{"primitives":[{"attributes":{"POSITION":12,"NORMAL":13},"mode":4,"indices":14,"material":2}]},{"primitives":[{"attributes":{"POSITION":15,"NORMAL":16},"mode":4,"indices":17,"material":2}]},{"primitives":[{"attributes":{"POSITION":18,"NORMAL":19},"mode":4,"indices":20,"material":2}]},{"primitives":[{"attributes":{"POSITION":21,"NORMAL":22},"mode":4,"indices":23,"material":2}]},{"primitives":[{"attributes":{"POSITION":24,"NORMAL":25},"mode":4,"indices":26,"material":0}]},{"primitives":[{"attributes":{"POSITION":27,"NORMAL":28},"mode":4,"indices":29,"material":3}]},{"primitives":[{"attributes":{"POSITION":30,"NORMAL":31},"mode":4,"indices":32,"material":4}]},{"primitives":[{"attributes":{"POSITION":33,"NORMAL":34},"mode":4,"indices":35,"material":4}]},{"primitives":[{"attributes":{"POSITION":36,"NORMAL":37},"mode":4,"indices":38,"material":4}]},{"primitives":[{"attributes":{"POSITION":39,"NORMAL":40},"mode":4,"indices":41,"material":5}]},{"primitives":[{"attributes":{"POSITION":42,"NORMAL":43},"mode":4,"indices":44,"material":6}]}],"animations":[{"name":"Animation","samplers":[{"input":45,"output":46},{"input":45,"output":47},{"input":45,"output":48},{"input":45,"output":49},{"input":45,"output":50},{"input":45,"output":51},{"input":45,"output":52},{"input":45,"output":53},{"input":45,"output":54},{"input":45,"output":55},{"input":45,"output":56},{"input":45,"output":57},{"input":45,"output":58},{"input":45,"output":59},{"input":45,"output":60},{"input":45,"output":61},{"input":45,"output":62},{"input":45,"output":63},{"input":45,"output":64},{"input":45,"output":65},{"input":45,"output":66},{"input":45,"output":67},{"input":45,"output":68},{"input":45,"output":69}],"channels":[{"sampler":0,"target":{"node":17,"path":"translation"}},{"sampler":1,"target":{"node":17,"path":"rotation"}},{"sampler":2,"target":{"node":20,"path":"translation"}},{"sampler":3,"target":{"node":20,"path":"rotation"}},{"sampler":4,"target":{"node":22,"path":"translation"}},{"sampler":5,"target":{"node":22,"path":"rotation"}},{"sampler":6,"target":{"node":24,"path":"translation"}},{"sampler":7,"target":{"node":24,"path":"rotation"}},{"sampler":8,"target":{"node":26,"path":"translation"}},{"sampler":9,"target":{"node":26,"path":"rotation"}},{"sampler":10,"target":{"node":28,"path":"translation"}},{"sampler":11,"target":{"node":28,"path":"rotation"}},{"sampler":12,"target":{"node":31,"path":"translation"}},{"sampler":13,"target":{"node":31,"path":"rotation"}},{"sampler":14,"target":{"node":33,"path":"translation"}},{"sampler":15,"target":{"node":33,"path":"rotation"}},{"sampler":16,"target":{"node":35,"path":"translation"}},{"sampler":17,"target":{"node":35,"path":"rotation"}},{"sampler":18,"target":{"node":37,"path":"translation"}},{"sampler":19,"target":{"node":37,"path":"rotation"}},{"sampler":20,"target":{"node":39,"path":"translation"}},{"sampler":21,"target":{"node":39,"path":"rotation"}},{"sampler":22,"target":{"node":41,"path":"translation"}},{"sampler":23,"target":{"node":41,"path":"rotation"}}]}],"nodes":[{"mesh":0,"translation":[-8.12930965,-9.48637009,-2.17722011],"scale":[0.00112082588,0.00112082588,0.00112082588]},{"mesh":1,"translation":[-8.12930965,-9.48637009,-2.17722011],"scale":[0.00112082588,0.00112082588,0.00112082588]},{"mesh":2,"translation":[-8.12930965,-9.48637009,-2.17722011],"scale":[0.00112082588,0.00112082588,0.00112082588]},{"mesh":3,"translation":[-8.12930965,-9.48637009,-2.17722011],"scale":[0.00112082588,0.00112082588,0.00112082588]},{"mesh":4,"translation":[-8.12930965,-9.48637009,-2.17722011],"scale":[0.00112082588,0.00112082588,0.00112082588]},{"mesh":5,"translation":[-8.12930965,-9.48637009,-2.17722011],"scale":[0.00112082588,0.00112082588,0.00112082588]},{"mesh":6,"translation":[-8.12930965,-9.48637009,-2.17722011],"scale":[0.00112082588,0.00112082588,0.00112082588]},{"mesh":7,"translation":[-8.12930965,-9.48637009,-2.17722011],"scale":[0.00112082588,0.00112082588,0.00112082588]},{"mesh":8,"translation":[-8.12930965,-9.48637009,-2.17722011],"scale":[0.00112082588,0.00112082588,0.00112082588]},{"mesh":9,"translation":[-8.12930965,-9.48637009,-2.17722011],"scale":[0.00112082588,0.00112082588,0.00112082588]},{"mesh":10,"translation":[-8.12930965,-9.48637009,-2.17722011],"scale":[0.00112082588,0.00112082588,0.00112082588]},{"mesh":11,"translation":[-8.12930965,-9.48637009,-2.17722011],"scale":[0.00112082588,0.00112082588,0.00112082588]},{"mesh":12,"translation":[-8.12930965,-9.48637009,-2.17722011],"scale":[0.00112082588,0.00112082588,0.00112082588]},{"mesh":13,"translation":[-8.12930965,-9.48637009,-2.17722011],"scale":[0.00112082588,0.00112082588,0.00112082588]},{"mesh":14,"translation":[-8.12930965,-9.48637009,-2.17722011],"scale":[0.00112082588,0.00112082588,0.00112082588]},{"name":"Circle_0","children":[0]},{"name":"Circle_1","children":[1]},{"name":"Circle","translation":[1.3779,1.98403001,0.606639981],"scale":[0.420780003,0.420780003,0.420780003],"children":[15,16]},{"name":"Circle.001_0","children":[2]},{"name":"Circle.001_1","children":[3]},{"name":"Circle.001","translation":[3.0768199,2.73146009,-0.0518300012],"children":[18,19]},{"name":"Circle.002_0","children":[4]},{"name":"Circle.002","translation":[3.05910993,2.73340988,1.00433004],"rotation":[0,0,-0.674601853,0.738181829],"scale":[0.14689,0.14689,0.14689],"children":[21]},{"name":"Circle.003_0","children":[5]},{"name":"Circle.003","translation":[-3.03453994,2.75440001,1.00433004],"rotation":[0,0,-0.119079381,0.992884755],"scale":[0.14689,0.14689,0.14689],"children":[23]},{"name":"Circle.004_0","children":[6]},{"name":"Circle.004","translation":[-3.03453994,-2.19015002,1.00433004],"rotation":[0,0,0.60478133,0.796391606],"scale":[0.14689,0.14689,0.14689],"children":[25]},{"name":"Circle.005_0","children":[7]},{"name":"Circle.005","translation":[3.04701996,-2.18695998,1.00433004],"rotation":[0,0,0.0107200276,0.999942541],"scale":[0.14689,0.14689,0.14689],"children":[27]},{"name":"Cube_0","children":[8]},{"name":"Cube_1","children":[9]},{"name":"Cube","translation":[0.0161899999,0.268649995,0],"scale":[1.18092,1,1],"children":[29,30]},{"name":"Cube.001_0","children":[10]},{"name":"Cube.001","translation":[1.13645995,0.833540022,0.277630001],"scale":[0.101360001,0.0495200008,0.0495200008],"children":[32]},{"name":"Cylinder_0","children":[11]},{"name":"Cylinder","translation":[0.0566300005,3.09408998,0.25229001],"rotation":[0.707106829,0,0,0.707106709],"scale":[0.121650003,0.121650003,0.121650003],"children":[34]},{"name":"Cylinder.001_0","children":[12]},{"name":"Cylinder.001","translation":[-0.0597699992,3.09408998,0.25229001],"rotation":[0.707106829,0,0,0.707106709],"scale":[0.121650003,0.121650003,0.121650003],"children":[36]},{"name":"Sphere_0","children":[13]},{"name":"Sphere","translation":[0.0480399989,2.87291002,-0.187989995],"scale":[0.0961500034,0.0961500034,0.120860003],"children":[38]},{"name":"Sphere.001_0","children":[14]},{"name":"Sphere.001","translation":[-0.00212999992,-2.48658991,-0.123860002],"scale":[0.173889995,0.129999995,0.163420007],"children":[40]},{"name":"Root","children":[17,20,22,24,26,28,31,33,35,37,39,41]},{"name":"RootNode (model correction matrix)","children":[42]},{"name":"RootNode (gltf orientation matrix)","rotation":[-0.707106829,0,0,0.707106829],"children":[43]}],"scenes":[{"name":"Scene","nodes":[44]}],"scene":0}